<svg xmlns="http://www.w3.org/2000/svg" width="74" height="74" viewBox="0 0 74 74">
  <path id="Path_26" data-name="Path 26" d="M72,0H63.5a2.006,2.006,0,0,0-2,2v8.7a2.006,2.006,0,0,0,2,2h2.1A31.57,31.57,0,0,1,48.4,36L38.3,25.1h0a1.38,1.38,0,0,0-.4-.3l-.1-.1a.6.6,0,0,0-.4-.1h-.8c-.1,0-.3.1-.4.1h-.1c-.1.1-.3.1-.4.2l-.1.1-.2.2h0l-10.2,11A31.857,31.857,0,0,1,7.9,12.8h2.6a2.006,2.006,0,0,0,2-2V2a2.006,2.006,0,0,0-2-2H2A2.006,2.006,0,0,0,0,2v8.7a2.006,2.006,0,0,0,2,2H3.9c1.8,11.7,8.9,21.5,18.5,26.4L21,40.6a2.107,2.107,0,0,0-.3,2.4l6.5,11.7v5.9H26a2.006,2.006,0,0,0-2,2V72a2.006,2.006,0,0,0,2,2H47.8a2.006,2.006,0,0,0,2-2V62.8a2.006,2.006,0,0,0-2-2H46.6V54.9l6.5-11.7a2.129,2.129,0,0,0-.3-2.4l-1.5-1.6A35.784,35.784,0,0,0,69.6,12.8H72a2.006,2.006,0,0,0,2-2V2A2.006,2.006,0,0,0,72,0ZM4,4H8.6V8.7H4ZM37,41.9a1.967,1.967,0,0,1,1.9,1.9A1.9,1.9,0,0,1,37,45.7a1.967,1.967,0,0,1-1.9-1.9A1.9,1.9,0,0,1,37,41.9ZM45.8,70H28V64.9H45.8ZM42.9,53.3a1.689,1.689,0,0,0-.3,1v6.5H31.1V54.3a1.689,1.689,0,0,0-.3-1l-6-10.9L34.9,31.6v6.7a6.02,6.02,0,0,0-3.8,5.6,5.9,5.9,0,1,0,11.8,0,6.087,6.087,0,0,0-4-5.7V31.6L49,42.4ZM70,8.7H65.4V4H70Z"/>
</svg>
