<svg xmlns="http://www.w3.org/2000/svg" width="46" height="68.1" viewBox="0 0 46 68.1">
  <path id="Path_28" data-name="Path 28" d="M33.6,21V13.3a1.922,1.922,0,0,0-.4-1.2L24.7.8a2,2,0,0,0-3.2,0L12.9,12.1a1.746,1.746,0,0,0-.4,1.2v7.6C0,33.3,0,35,0,35.8V52.1a2.006,2.006,0,0,0,2,2H12.2v3.6A10.4,10.4,0,1,0,33,57.6V54H44a2.006,2.006,0,0,0,2-2V35.7C46,35,46,33.3,33.6,21ZM4,50.1v-14c.7-1.3,4.4-5.3,8.3-9.4l.1,23.4ZM21,8h4.1l2.6,3.4H18.5Zm-4.5,7.3h4.7V50.1H16.5Zm6.1,48.8a6.4,6.4,0,0,1-6.1-4.4H28.8A6.626,6.626,0,0,1,22.6,64.1Zm6.5-8.4H16.2V54.1H29.1Zm.6-10.8v5.2H25.1V15.3h4.6ZM42,50.1H33.6V45l.1-18.3c4,4.1,7.6,8.1,8.3,9.4v14Z"/>
</svg>
