<svg id="Group_8" data-name="Group 8" xmlns="http://www.w3.org/2000/svg" width="58" height="54" viewBox="0 0 58 54">
  <path id="Path_24" data-name="Path 24" d="M11.8,47.8a3.63,3.63,0,0,0,3.7-3.7,3.757,3.757,0,0,0-3.7-3.7,3.63,3.63,0,0,0-3.7,3.7A3.757,3.757,0,0,0,11.8,47.8Z"/>
  <path id="Path_25" data-name="Path 25" d="M56,30.9H41.5L51.7,20.8a1.933,1.933,0,0,0,0-2.8L37.9,4.5a2.052,2.052,0,0,0-2.9,0L23.5,15.9V2a2.006,2.006,0,0,0-2-2H2A2.006,2.006,0,0,0,0,2V52a2.006,2.006,0,0,0,2,2H56a2.006,2.006,0,0,0,2-2V32.9A2.006,2.006,0,0,0,56,30.9ZM19.4,50H4V37.8H19.4Zm0-16.2H4V19.4H19.4Zm0-18.4H4V4H19.4Zm4.1,6.1,1.9-1.9L36.3,30.3,26,40.6l-2.5-2.5ZM38.3,50H23.7V48.5L37.5,34.8h.8Zm-10-33.2,8.2-8.1L47.4,19.4l-8.2,8.1ZM54,50H42.3V34.8H54Z"/>
</svg>
