<svg id="Group_271" data-name="Group 271" xmlns="http://www.w3.org/2000/svg" width="112" height="27.912" viewBox="0 0 112 27.912">
  <g id="Group_4" data-name="Group 4">
    <path id="Path_7" data-name="Path 7" d="M50.9,19.72h5.976a2.4,2.4,0,0,0,1.055,1.266,3.249,3.249,0,0,0,1.758.492,3.182,3.182,0,0,0,1.9-.492A1.14,1.14,0,0,0,62.079,20a1.027,1.027,0,0,0-.7-.984,19.374,19.374,0,0,0-2.6-.633,28.1,28.1,0,0,1-4.359-.984,4.409,4.409,0,0,1-2.039-1.547,4.065,4.065,0,0,1-.844-2.531,3.86,3.86,0,0,1,.914-2.672,5.166,5.166,0,0,1,2.461-1.687A13.756,13.756,0,0,1,59.2,8.4a14.9,14.9,0,0,1,4.148.422,5.12,5.12,0,0,1,3.8,4.218H61.446a2.171,2.171,0,0,0-.773-1.125,2.8,2.8,0,0,0-1.687-.492,2.515,2.515,0,0,0-1.476.352,1.2,1.2,0,0,0-.492.914.848.848,0,0,0,.562.844,11.491,11.491,0,0,0,2.6.562,20.63,20.63,0,0,1,4.5.914,4.784,4.784,0,0,1,2.25,1.758,4.43,4.43,0,0,1,.773,2.461A4.794,4.794,0,0,1,66.86,21.9a5.563,5.563,0,0,1-2.6,2.039,12.945,12.945,0,0,1-4.851.773c-2.883,0-4.922-.422-6.117-1.2a6.058,6.058,0,0,1-2.39-3.8" transform="translate(-15.113 -2.494)" fill="#fff"/>
    <rect id="Rectangle_11" data-name="Rectangle 11" width="6.046" height="14.835" transform="translate(28.615 7.031)" fill="#fff"/>
    <rect id="Rectangle_12" data-name="Rectangle 12" width="6.046" height="4.781" transform="translate(28.615 0.141)" fill="#fff"/>
    <rect id="Rectangle_13" data-name="Rectangle 13" width="6.046" height="21.725" transform="translate(20.178 0.141)" fill="#fff"/>
    <path id="Path_8" data-name="Path 8" d="M18.21,17.9H6.117a4.173,4.173,0,0,0,.773,2.18,2.766,2.766,0,0,0,2.25,1.055,3.744,3.744,0,0,0,1.687-.422,3.38,3.38,0,0,0,1.055-.984h6.187C15.4,23.738,13.921,24.652,9,24.722a10.592,10.592,0,0,1-4.922-.914A7.071,7.071,0,0,1,1.125,21,9.276,9.276,0,0,1,0,16.5,7.841,7.841,0,0,1,2.39,10.52,8.841,8.841,0,0,1,8.929,8.2a11.449,11.449,0,0,1,5.343,1.055,6.662,6.662,0,0,1,2.953,2.953A10.422,10.422,0,0,1,18.28,17.27V17.9ZM12.093,15.02a4.453,4.453,0,0,0-.914-2.531,2.813,2.813,0,0,0-2.039-.773A2.683,2.683,0,0,0,6.82,12.84a4.942,4.942,0,0,0-.7,2.109h5.976Z" transform="translate(0 -2.435)" fill="#fff"/>
    <path id="Path_9" data-name="Path 9" d="M80.59,16.467a7.17,7.17,0,0,0,1.2,4.5,3.762,3.762,0,0,0,5.976,0,7.037,7.037,0,0,0,1.266-4.64,6.741,6.741,0,0,0-1.266-4.5,3.794,3.794,0,0,0-2.953-1.476,3.877,3.877,0,0,0-3.023,1.617,7.311,7.311,0,0,0-1.2,4.5M78.2,30.317V8.522h2.461v2.039a6.069,6.069,0,0,1,1.969-1.828,5.093,5.093,0,0,1,2.6-.633,6.317,6.317,0,0,1,3.586,1.055,6.1,6.1,0,0,1,2.32,2.953,11.453,11.453,0,0,1,.773,4.148,10.715,10.715,0,0,1-.844,4.359,6.505,6.505,0,0,1-2.531,2.953,6.37,6.37,0,0,1-3.445,1.055,5.214,5.214,0,0,1-2.39-.562,5.751,5.751,0,0,1-1.758-1.406v7.664H78.2Z" transform="translate(-23.219 -2.405)" fill="#fff"/>
    <path id="Path_10" data-name="Path 10" d="M155.92,20.347l.352,2.18a9.776,9.776,0,0,1-1.9.211,4.3,4.3,0,0,1-2.109-.422,2.333,2.333,0,0,1-1.055-1.125,9.164,9.164,0,0,1-.281-2.953V9.8H149.1V7.832h1.828V4.176L153.389,2.7V7.832h2.531V9.8h-2.531v8.648a5.257,5.257,0,0,0,.141,1.406.945.945,0,0,0,.422.492,1.5,1.5,0,0,0,.844.211c.351-.07.7-.141,1.125-.211" transform="translate(-44.271 -0.802)" fill="#fff"/>
    <path id="Path_11" data-name="Path 11" d="M128.6,24.616V9.852h2.25v2.109A5.337,5.337,0,0,1,135.56,9.5a5.706,5.706,0,0,1,2.461.492,4.093,4.093,0,0,1,1.687,1.266,4.794,4.794,0,0,1,.773,1.828,17.557,17.557,0,0,1,.141,2.461v9.07h-2.531v-9a6.937,6.937,0,0,0-.281-2.32,2.482,2.482,0,0,0-1.055-1.2A3.425,3.425,0,0,0,135,11.68a4.226,4.226,0,0,0-2.742.984c-.773.7-1.125,1.969-1.125,3.867v8.085Z" transform="translate(-38.184 -2.821)" fill="#fff"/>
    <path id="Path_12" data-name="Path 12" d="M101.6,24.646V9.881h2.25v2.25a5.2,5.2,0,0,1,1.617-2.039,2.6,2.6,0,0,1,1.617-.492,5.5,5.5,0,0,1,2.6.773l-.844,2.32a3.686,3.686,0,0,0-1.828-.562,2.207,2.207,0,0,0-1.476.492,2.552,2.552,0,0,0-.914,1.336,9.524,9.524,0,0,0-.422,2.883v7.734h-2.6Z" transform="translate(-30.168 -2.85)" fill="#fff"/>
    <g id="Group_3" data-name="Group 3" transform="translate(81.486 6.96)">
      <rect id="Rectangle_14" data-name="Rectangle 14" width="5.695" height="14.765" fill="#f6a113"/>
    </g>
    <rect id="Rectangle_15" data-name="Rectangle 15" width="5.836" height="4.992" transform="translate(81.416)" fill="#f6a113"/>
  </g>
</svg>
